<mxfile host="app.diagrams.net" modified="2021-07-31T12:08:40.249Z" agent="5.0 (X11; Linux x86_64) AppleWebKit/537.36 (KHTML, like Gecko) Chrome/91.0.4472.114 Safari/537.36" etag="rQYl2EW3xfIWOPr-27bm" version="14.7.4" type="github">
  <diagram id="cUzV_fIQ7pMdSYCNfb0-" name="Page-1">
    <mxGraphModel dx="1422" dy="724" grid="0" gridSize="10" guides="1" tooltips="1" connect="1" arrows="1" fold="1" page="1" pageScale="1" pageWidth="3300" pageHeight="4681" background="#FFFFFF" math="0" shadow="0">
      <root>
        <mxCell id="0" />
        <mxCell id="1" parent="0" />
        <mxCell id="BpBgMjqtHnBmlu4Niqm3-1" value="" style="endArrow=classic;html=1;entryX=0.5;entryY=0;entryDx=0;entryDy=0;" edge="1" parent="1" target="BpBgMjqtHnBmlu4Niqm3-32">
          <mxGeometry width="50" height="50" relative="1" as="geometry">
            <mxPoint x="360" y="200" as="sourcePoint" />
            <mxPoint x="360" y="470" as="targetPoint" />
          </mxGeometry>
        </mxCell>
        <mxCell id="BpBgMjqtHnBmlu4Niqm3-2" value="" style="endArrow=none;html=1;" edge="1" parent="1">
          <mxGeometry width="50" height="50" relative="1" as="geometry">
            <mxPoint x="360" y="240" as="sourcePoint" />
            <mxPoint x="480" y="240" as="targetPoint" />
          </mxGeometry>
        </mxCell>
        <mxCell id="BpBgMjqtHnBmlu4Niqm3-3" value="" style="endArrow=classic;html=1;" edge="1" parent="1">
          <mxGeometry width="50" height="50" relative="1" as="geometry">
            <mxPoint x="480" y="240" as="sourcePoint" />
            <mxPoint x="480" y="280" as="targetPoint" />
          </mxGeometry>
        </mxCell>
        <mxCell id="BpBgMjqtHnBmlu4Niqm3-4" value="&lt;font style=&quot;font-size: 14px&quot;&gt;C x H x W&lt;/font&gt;" style="text;html=1;resizable=0;autosize=1;align=center;verticalAlign=middle;points=[];fillColor=none;strokeColor=none;rounded=0;" vertex="1" parent="1">
          <mxGeometry x="385" y="220" width="80" height="20" as="geometry" />
        </mxCell>
        <mxCell id="BpBgMjqtHnBmlu4Niqm3-5" value="" style="rounded=0;whiteSpace=wrap;html=1;fillColor=#d5e8d4;strokeColor=#82b366;" vertex="1" parent="1">
          <mxGeometry x="420" y="280" width="120" height="30" as="geometry" />
        </mxCell>
        <mxCell id="BpBgMjqtHnBmlu4Niqm3-7" value="&lt;font face=&quot;Times New Roman&quot; style=&quot;font-size: 14px;&quot;&gt;Global Avg Pool&lt;/font&gt;" style="text;html=1;resizable=0;autosize=1;align=center;verticalAlign=middle;points=[];fillColor=none;strokeColor=none;rounded=0;fontSize=14;" vertex="1" parent="1">
          <mxGeometry x="425" y="285" width="110" height="20" as="geometry" />
        </mxCell>
        <mxCell id="BpBgMjqtHnBmlu4Niqm3-8" value="" style="endArrow=classic;html=1;fontSize=14;exitX=0.5;exitY=1;exitDx=0;exitDy=0;" edge="1" parent="1" source="BpBgMjqtHnBmlu4Niqm3-5">
          <mxGeometry width="50" height="50" relative="1" as="geometry">
            <mxPoint x="700" y="340" as="sourcePoint" />
            <mxPoint x="480" y="360" as="targetPoint" />
          </mxGeometry>
        </mxCell>
        <mxCell id="BpBgMjqtHnBmlu4Niqm3-10" value="C x 1 x 1" style="text;html=1;resizable=0;autosize=1;align=center;verticalAlign=middle;points=[];fillColor=none;strokeColor=none;rounded=0;fontSize=14;" vertex="1" parent="1">
          <mxGeometry x="400" y="330" width="70" height="20" as="geometry" />
        </mxCell>
        <mxCell id="BpBgMjqtHnBmlu4Niqm3-11" value="" style="rounded=0;whiteSpace=wrap;html=1;fontSize=14;fillColor=#ffe6cc;strokeColor=#d79b00;" vertex="1" parent="1">
          <mxGeometry x="420" y="360" width="120" height="30" as="geometry" />
        </mxCell>
        <mxCell id="BpBgMjqtHnBmlu4Niqm3-12" value="&lt;font face=&quot;Times New Roman&quot; style=&quot;font-size: 16px;&quot;&gt;1 x 1 Conv&lt;/font&gt;" style="text;html=1;resizable=0;autosize=1;align=center;verticalAlign=middle;points=[];fillColor=none;strokeColor=none;rounded=0;fontSize=16;" vertex="1" parent="1">
          <mxGeometry x="435" y="365" width="90" height="20" as="geometry" />
        </mxCell>
        <mxCell id="BpBgMjqtHnBmlu4Niqm3-13" value="" style="endArrow=classic;html=1;fontSize=16;exitX=0.5;exitY=1;exitDx=0;exitDy=0;" edge="1" parent="1" source="BpBgMjqtHnBmlu4Niqm3-11">
          <mxGeometry width="50" height="50" relative="1" as="geometry">
            <mxPoint x="700" y="340" as="sourcePoint" />
            <mxPoint x="480" y="440" as="targetPoint" />
          </mxGeometry>
        </mxCell>
        <mxCell id="BpBgMjqtHnBmlu4Niqm3-18" value="" style="rounded=0;whiteSpace=wrap;html=1;fontSize=16;strokeColor=#6c8ebf;fillColor=#dae8fc;" vertex="1" parent="1">
          <mxGeometry x="420" y="440" width="120" height="30" as="geometry" />
        </mxCell>
        <mxCell id="BpBgMjqtHnBmlu4Niqm3-19" value="C x 1 x 1" style="text;html=1;resizable=0;autosize=1;align=center;verticalAlign=middle;points=[];fillColor=none;strokeColor=none;rounded=0;fontSize=14;" vertex="1" parent="1">
          <mxGeometry x="400" y="410" width="70" height="20" as="geometry" />
        </mxCell>
        <mxCell id="BpBgMjqtHnBmlu4Niqm3-20" value="&lt;font face=&quot;Times New Roman&quot; style=&quot;font-size: 17px;&quot;&gt;ReLU&lt;/font&gt;" style="text;html=1;resizable=0;autosize=1;align=center;verticalAlign=middle;points=[];fillColor=none;strokeColor=none;rounded=0;fontSize=17;" vertex="1" parent="1">
          <mxGeometry x="445" y="440" width="60" height="30" as="geometry" />
        </mxCell>
        <mxCell id="BpBgMjqtHnBmlu4Niqm3-21" value="" style="endArrow=classic;html=1;fontSize=17;" edge="1" parent="1">
          <mxGeometry width="50" height="50" relative="1" as="geometry">
            <mxPoint x="479.5" y="470" as="sourcePoint" />
            <mxPoint x="480" y="520" as="targetPoint" />
          </mxGeometry>
        </mxCell>
        <mxCell id="BpBgMjqtHnBmlu4Niqm3-23" value="" style="rounded=0;whiteSpace=wrap;html=1;fontSize=14;fillColor=#ffe6cc;strokeColor=#d79b00;" vertex="1" parent="1">
          <mxGeometry x="420" y="520" width="120" height="30" as="geometry" />
        </mxCell>
        <mxCell id="BpBgMjqtHnBmlu4Niqm3-24" value="&lt;font face=&quot;Times New Roman&quot; style=&quot;font-size: 16px;&quot;&gt;1 x 1 Conv&lt;/font&gt;" style="text;html=1;resizable=0;autosize=1;align=center;verticalAlign=middle;points=[];fillColor=none;strokeColor=none;rounded=0;fontSize=16;" vertex="1" parent="1">
          <mxGeometry x="435" y="525" width="90" height="20" as="geometry" />
        </mxCell>
        <mxCell id="BpBgMjqtHnBmlu4Niqm3-25" value="C x 1 x 1" style="text;html=1;resizable=0;autosize=1;align=center;verticalAlign=middle;points=[];fillColor=none;strokeColor=none;rounded=0;fontSize=14;" vertex="1" parent="1">
          <mxGeometry x="400" y="490" width="70" height="20" as="geometry" />
        </mxCell>
        <mxCell id="BpBgMjqtHnBmlu4Niqm3-27" value="" style="rounded=1;whiteSpace=wrap;html=1;fontSize=17;strokeColor=#d6b656;fillColor=#fff2cc;" vertex="1" parent="1">
          <mxGeometry x="420" y="600" width="120" height="30" as="geometry" />
        </mxCell>
        <mxCell id="BpBgMjqtHnBmlu4Niqm3-28" value="" style="endArrow=classic;html=1;fontSize=17;" edge="1" parent="1">
          <mxGeometry width="50" height="50" relative="1" as="geometry">
            <mxPoint x="479.5" y="550" as="sourcePoint" />
            <mxPoint x="480" y="600" as="targetPoint" />
          </mxGeometry>
        </mxCell>
        <mxCell id="BpBgMjqtHnBmlu4Niqm3-30" value="&lt;font face=&quot;Times New Roman&quot;&gt;Sigmoid&lt;/font&gt;" style="text;html=1;resizable=0;autosize=1;align=center;verticalAlign=middle;points=[];fillColor=none;strokeColor=none;rounded=0;fontSize=17;" vertex="1" parent="1">
          <mxGeometry x="440" y="600" width="70" height="30" as="geometry" />
        </mxCell>
        <mxCell id="BpBgMjqtHnBmlu4Niqm3-31" value="C x 1 x 1" style="text;html=1;resizable=0;autosize=1;align=center;verticalAlign=middle;points=[];fillColor=none;strokeColor=none;rounded=0;fontSize=14;" vertex="1" parent="1">
          <mxGeometry x="400" y="570" width="70" height="20" as="geometry" />
        </mxCell>
        <mxCell id="BpBgMjqtHnBmlu4Niqm3-32" value="" style="ellipse;whiteSpace=wrap;html=1;aspect=fixed;fontSize=17;strokeColor=#000000;" vertex="1" parent="1">
          <mxGeometry x="350" y="605" width="20" height="20" as="geometry" />
        </mxCell>
        <mxCell id="BpBgMjqtHnBmlu4Niqm3-35" value="&lt;b&gt;.&lt;/b&gt;" style="text;html=1;resizable=0;autosize=1;align=center;verticalAlign=middle;points=[];fillColor=none;strokeColor=none;rounded=0;fontSize=17;" vertex="1" parent="1">
          <mxGeometry x="350" y="595" width="20" height="30" as="geometry" />
        </mxCell>
        <mxCell id="BpBgMjqtHnBmlu4Niqm3-36" value="" style="endArrow=classic;html=1;fontSize=17;entryX=1;entryY=0.733;entryDx=0;entryDy=0;entryPerimeter=0;exitX=0;exitY=0.5;exitDx=0;exitDy=0;" edge="1" parent="1" source="BpBgMjqtHnBmlu4Niqm3-27" target="BpBgMjqtHnBmlu4Niqm3-35">
          <mxGeometry width="50" height="50" relative="1" as="geometry">
            <mxPoint x="700" y="560" as="sourcePoint" />
            <mxPoint x="750" y="510" as="targetPoint" />
          </mxGeometry>
        </mxCell>
        <mxCell id="BpBgMjqtHnBmlu4Niqm3-37" value="" style="endArrow=classic;html=1;fontSize=17;exitX=0.45;exitY=1.1;exitDx=0;exitDy=0;exitPerimeter=0;" edge="1" parent="1" source="BpBgMjqtHnBmlu4Niqm3-35">
          <mxGeometry width="50" height="50" relative="1" as="geometry">
            <mxPoint x="700" y="560" as="sourcePoint" />
            <mxPoint x="359" y="670" as="targetPoint" />
          </mxGeometry>
        </mxCell>
        <mxCell id="BpBgMjqtHnBmlu4Niqm3-38" value="SE Module&lt;br&gt;" style="text;html=1;resizable=0;autosize=1;align=center;verticalAlign=middle;points=[];fillColor=none;strokeColor=none;rounded=0;fontSize=17;fontStyle=1" vertex="1" parent="1">
          <mxGeometry x="360" y="750" width="100" height="30" as="geometry" />
        </mxCell>
        <mxCell id="BpBgMjqtHnBmlu4Niqm3-65" value="" style="endArrow=classic;html=1;entryX=0.5;entryY=0;entryDx=0;entryDy=0;" edge="1" parent="1" target="BpBgMjqtHnBmlu4Niqm3-87">
          <mxGeometry width="50" height="50" relative="1" as="geometry">
            <mxPoint x="1120" y="200" as="sourcePoint" />
            <mxPoint x="1120" y="470" as="targetPoint" />
          </mxGeometry>
        </mxCell>
        <mxCell id="BpBgMjqtHnBmlu4Niqm3-66" value="" style="endArrow=none;html=1;" edge="1" parent="1">
          <mxGeometry width="50" height="50" relative="1" as="geometry">
            <mxPoint x="1120" y="240" as="sourcePoint" />
            <mxPoint x="1240" y="240" as="targetPoint" />
          </mxGeometry>
        </mxCell>
        <mxCell id="BpBgMjqtHnBmlu4Niqm3-67" value="" style="endArrow=classic;html=1;" edge="1" parent="1">
          <mxGeometry width="50" height="50" relative="1" as="geometry">
            <mxPoint x="1240" y="240" as="sourcePoint" />
            <mxPoint x="1240" y="280" as="targetPoint" />
          </mxGeometry>
        </mxCell>
        <mxCell id="BpBgMjqtHnBmlu4Niqm3-68" value="C x H x W" style="text;html=1;resizable=0;autosize=1;align=center;verticalAlign=middle;points=[];fillColor=none;strokeColor=none;rounded=0;" vertex="1" parent="1">
          <mxGeometry x="1150" y="220" width="70" height="20" as="geometry" />
        </mxCell>
        <mxCell id="BpBgMjqtHnBmlu4Niqm3-69" value="" style="rounded=0;whiteSpace=wrap;html=1;fillColor=#d5e8d4;strokeColor=#82b366;" vertex="1" parent="1">
          <mxGeometry x="1180" y="280" width="120" height="30" as="geometry" />
        </mxCell>
        <mxCell id="BpBgMjqtHnBmlu4Niqm3-71" value="" style="endArrow=classic;html=1;fontSize=14;exitX=0.5;exitY=1;exitDx=0;exitDy=0;" edge="1" parent="1" source="BpBgMjqtHnBmlu4Niqm3-69">
          <mxGeometry width="50" height="50" relative="1" as="geometry">
            <mxPoint x="1460" y="340" as="sourcePoint" />
            <mxPoint x="1240" y="360" as="targetPoint" />
          </mxGeometry>
        </mxCell>
        <mxCell id="BpBgMjqtHnBmlu4Niqm3-72" value="C x 1 x 1" style="text;html=1;resizable=0;autosize=1;align=center;verticalAlign=middle;points=[];fillColor=none;strokeColor=none;rounded=0;fontSize=14;" vertex="1" parent="1">
          <mxGeometry x="1160" y="330" width="70" height="20" as="geometry" />
        </mxCell>
        <mxCell id="BpBgMjqtHnBmlu4Niqm3-73" value="" style="rounded=0;whiteSpace=wrap;html=1;fontSize=14;fillColor=#ffe6cc;strokeColor=#d79b00;" vertex="1" parent="1">
          <mxGeometry x="1180" y="360" width="120" height="30" as="geometry" />
        </mxCell>
        <mxCell id="BpBgMjqtHnBmlu4Niqm3-74" value="&lt;font face=&quot;Times New Roman&quot; style=&quot;font-size: 16px;&quot;&gt;1 x 1 Conv&lt;/font&gt;" style="text;html=1;resizable=0;autosize=1;align=center;verticalAlign=middle;points=[];fillColor=none;strokeColor=none;rounded=0;fontSize=16;" vertex="1" parent="1">
          <mxGeometry x="1195" y="365" width="90" height="20" as="geometry" />
        </mxCell>
        <mxCell id="BpBgMjqtHnBmlu4Niqm3-75" value="" style="endArrow=classic;html=1;fontSize=16;exitX=0.5;exitY=1;exitDx=0;exitDy=0;" edge="1" parent="1" source="BpBgMjqtHnBmlu4Niqm3-73">
          <mxGeometry width="50" height="50" relative="1" as="geometry">
            <mxPoint x="1460" y="340" as="sourcePoint" />
            <mxPoint x="1240" y="440" as="targetPoint" />
          </mxGeometry>
        </mxCell>
        <mxCell id="BpBgMjqtHnBmlu4Niqm3-76" value="" style="rounded=0;whiteSpace=wrap;html=1;fontSize=16;strokeColor=#6c8ebf;fillColor=#dae8fc;" vertex="1" parent="1">
          <mxGeometry x="1180" y="440" width="120" height="30" as="geometry" />
        </mxCell>
        <mxCell id="BpBgMjqtHnBmlu4Niqm3-77" value="C x 1 x 1" style="text;html=1;resizable=0;autosize=1;align=center;verticalAlign=middle;points=[];fillColor=none;strokeColor=none;rounded=0;fontSize=14;" vertex="1" parent="1">
          <mxGeometry x="1160" y="410" width="70" height="20" as="geometry" />
        </mxCell>
        <mxCell id="BpBgMjqtHnBmlu4Niqm3-78" value="&lt;font face=&quot;Times New Roman&quot; style=&quot;font-size: 17px;&quot;&gt;ReLU&lt;/font&gt;" style="text;html=1;resizable=0;autosize=1;align=center;verticalAlign=middle;points=[];fillColor=none;strokeColor=none;rounded=0;fontSize=17;" vertex="1" parent="1">
          <mxGeometry x="1205" y="440" width="60" height="30" as="geometry" />
        </mxCell>
        <mxCell id="BpBgMjqtHnBmlu4Niqm3-79" value="" style="endArrow=classic;html=1;fontSize=17;" edge="1" parent="1">
          <mxGeometry width="50" height="50" relative="1" as="geometry">
            <mxPoint x="1239.5" y="470" as="sourcePoint" />
            <mxPoint x="1240" y="520" as="targetPoint" />
          </mxGeometry>
        </mxCell>
        <mxCell id="BpBgMjqtHnBmlu4Niqm3-80" value="" style="rounded=0;whiteSpace=wrap;html=1;fontSize=14;fillColor=#ffe6cc;strokeColor=#d79b00;" vertex="1" parent="1">
          <mxGeometry x="1180" y="520" width="120" height="30" as="geometry" />
        </mxCell>
        <mxCell id="BpBgMjqtHnBmlu4Niqm3-81" value="&lt;font face=&quot;Times New Roman&quot; style=&quot;font-size: 16px;&quot;&gt;1 x 1 Conv&lt;/font&gt;" style="text;html=1;resizable=0;autosize=1;align=center;verticalAlign=middle;points=[];fillColor=none;strokeColor=none;rounded=0;fontSize=16;" vertex="1" parent="1">
          <mxGeometry x="1195" y="525" width="90" height="20" as="geometry" />
        </mxCell>
        <mxCell id="BpBgMjqtHnBmlu4Niqm3-82" value="C x 1 x 1" style="text;html=1;resizable=0;autosize=1;align=center;verticalAlign=middle;points=[];fillColor=none;strokeColor=none;rounded=0;fontSize=14;" vertex="1" parent="1">
          <mxGeometry x="1160" y="490" width="70" height="20" as="geometry" />
        </mxCell>
        <mxCell id="BpBgMjqtHnBmlu4Niqm3-83" value="" style="rounded=1;whiteSpace=wrap;html=1;fontSize=17;strokeColor=#d6b656;fillColor=#fff2cc;" vertex="1" parent="1">
          <mxGeometry x="1180" y="600" width="120" height="30" as="geometry" />
        </mxCell>
        <mxCell id="BpBgMjqtHnBmlu4Niqm3-84" value="" style="endArrow=classic;html=1;fontSize=17;" edge="1" parent="1">
          <mxGeometry width="50" height="50" relative="1" as="geometry">
            <mxPoint x="1239.5" y="550" as="sourcePoint" />
            <mxPoint x="1240" y="600" as="targetPoint" />
          </mxGeometry>
        </mxCell>
        <mxCell id="BpBgMjqtHnBmlu4Niqm3-85" value="&lt;font face=&quot;Times New Roman&quot;&gt;Sigmoid&lt;/font&gt;" style="text;html=1;resizable=0;autosize=1;align=center;verticalAlign=middle;points=[];fillColor=none;strokeColor=none;rounded=0;fontSize=17;" vertex="1" parent="1">
          <mxGeometry x="1200" y="600" width="70" height="30" as="geometry" />
        </mxCell>
        <mxCell id="BpBgMjqtHnBmlu4Niqm3-86" value="C x 1 x 1" style="text;html=1;resizable=0;autosize=1;align=center;verticalAlign=middle;points=[];fillColor=none;strokeColor=none;rounded=0;fontSize=14;" vertex="1" parent="1">
          <mxGeometry x="1160" y="570" width="70" height="20" as="geometry" />
        </mxCell>
        <mxCell id="BpBgMjqtHnBmlu4Niqm3-87" value="" style="ellipse;whiteSpace=wrap;html=1;aspect=fixed;fontSize=17;strokeColor=#000000;" vertex="1" parent="1">
          <mxGeometry x="1110" y="605" width="20" height="20" as="geometry" />
        </mxCell>
        <mxCell id="BpBgMjqtHnBmlu4Niqm3-88" value="&lt;b&gt;.&lt;/b&gt;" style="text;html=1;resizable=0;autosize=1;align=center;verticalAlign=middle;points=[];fillColor=none;strokeColor=none;rounded=0;fontSize=17;" vertex="1" parent="1">
          <mxGeometry x="1110" y="595" width="20" height="30" as="geometry" />
        </mxCell>
        <mxCell id="BpBgMjqtHnBmlu4Niqm3-89" value="" style="endArrow=classic;html=1;fontSize=17;entryX=1;entryY=0.733;entryDx=0;entryDy=0;entryPerimeter=0;exitX=0;exitY=0.5;exitDx=0;exitDy=0;" edge="1" parent="1" source="BpBgMjqtHnBmlu4Niqm3-83" target="BpBgMjqtHnBmlu4Niqm3-88">
          <mxGeometry width="50" height="50" relative="1" as="geometry">
            <mxPoint x="1460" y="560" as="sourcePoint" />
            <mxPoint x="1510" y="510" as="targetPoint" />
          </mxGeometry>
        </mxCell>
        <mxCell id="BpBgMjqtHnBmlu4Niqm3-90" value="" style="endArrow=classic;html=1;fontSize=17;exitX=0.45;exitY=1.1;exitDx=0;exitDy=0;exitPerimeter=0;" edge="1" parent="1" source="BpBgMjqtHnBmlu4Niqm3-88">
          <mxGeometry width="50" height="50" relative="1" as="geometry">
            <mxPoint x="1460" y="560" as="sourcePoint" />
            <mxPoint x="1119" y="670" as="targetPoint" />
          </mxGeometry>
        </mxCell>
        <mxCell id="BpBgMjqtHnBmlu4Niqm3-91" value="&lt;font face=&quot;Times New Roman&quot;&gt;GAP + GMP&lt;/font&gt;" style="text;html=1;resizable=0;autosize=1;align=center;verticalAlign=middle;points=[];fillColor=none;strokeColor=none;rounded=0;fontSize=17;" vertex="1" parent="1">
          <mxGeometry x="1190" y="280" width="100" height="30" as="geometry" />
        </mxCell>
        <mxCell id="BpBgMjqtHnBmlu4Niqm3-93" value="" style="endArrow=none;html=1;fontSize=17;" edge="1" parent="1">
          <mxGeometry width="50" height="50" relative="1" as="geometry">
            <mxPoint x="1000" y="240" as="sourcePoint" />
            <mxPoint x="1120" y="240" as="targetPoint" />
          </mxGeometry>
        </mxCell>
        <mxCell id="BpBgMjqtHnBmlu4Niqm3-94" value="" style="rounded=0;whiteSpace=wrap;html=1;fontSize=17;strokeColor=#82b366;fillColor=#d5e8d4;" vertex="1" parent="1">
          <mxGeometry x="940" y="290" width="120" height="30" as="geometry" />
        </mxCell>
        <mxCell id="BpBgMjqtHnBmlu4Niqm3-95" value="" style="endArrow=classic;html=1;fontSize=17;" edge="1" parent="1">
          <mxGeometry width="50" height="50" relative="1" as="geometry">
            <mxPoint x="1000" y="240" as="sourcePoint" />
            <mxPoint x="1000" y="290" as="targetPoint" />
          </mxGeometry>
        </mxCell>
        <mxCell id="BpBgMjqtHnBmlu4Niqm3-96" value="&lt;font face=&quot;Times New Roman&quot;&gt;Channel Pool&lt;/font&gt;" style="text;html=1;resizable=0;autosize=1;align=center;verticalAlign=middle;points=[];fillColor=none;strokeColor=none;rounded=0;fontSize=17;" vertex="1" parent="1">
          <mxGeometry x="950" y="290" width="110" height="30" as="geometry" />
        </mxCell>
        <mxCell id="BpBgMjqtHnBmlu4Niqm3-97" value="" style="endArrow=classic;html=1;fontSize=17;exitX=0.473;exitY=1.033;exitDx=0;exitDy=0;exitPerimeter=0;" edge="1" parent="1" source="BpBgMjqtHnBmlu4Niqm3-96">
          <mxGeometry width="50" height="50" relative="1" as="geometry">
            <mxPoint x="700" y="480" as="sourcePoint" />
            <mxPoint x="1002" y="390" as="targetPoint" />
          </mxGeometry>
        </mxCell>
        <mxCell id="BpBgMjqtHnBmlu4Niqm3-98" value="2 x H x W&amp;nbsp;" style="text;html=1;resizable=0;autosize=1;align=center;verticalAlign=middle;points=[];fillColor=none;strokeColor=none;rounded=0;fontSize=14;" vertex="1" parent="1">
          <mxGeometry x="1020" y="350" width="80" height="20" as="geometry" />
        </mxCell>
        <mxCell id="BpBgMjqtHnBmlu4Niqm3-99" value="" style="rounded=0;whiteSpace=wrap;html=1;fontSize=14;strokeColor=#d79b00;fillColor=#ffe6cc;" vertex="1" parent="1">
          <mxGeometry x="940" y="390" width="120" height="30" as="geometry" />
        </mxCell>
        <mxCell id="BpBgMjqtHnBmlu4Niqm3-100" value="&lt;font face=&quot;Times New Roman&quot; style=&quot;font-size: 17px&quot;&gt;7 x 7 Conv&lt;/font&gt;" style="text;html=1;resizable=0;autosize=1;align=center;verticalAlign=middle;points=[];fillColor=none;strokeColor=none;rounded=0;fontSize=14;" vertex="1" parent="1">
          <mxGeometry x="955" y="395" width="90" height="20" as="geometry" />
        </mxCell>
        <mxCell id="BpBgMjqtHnBmlu4Niqm3-101" value="" style="rounded=0;whiteSpace=wrap;html=1;fontSize=14;strokeColor=#b85450;fillColor=#f8cecc;" vertex="1" parent="1">
          <mxGeometry x="945" y="490" width="120" height="30" as="geometry" />
        </mxCell>
        <mxCell id="BpBgMjqtHnBmlu4Niqm3-102" value="" style="endArrow=classic;html=1;fontSize=14;exitX=0.5;exitY=1;exitDx=0;exitDy=0;entryX=0.45;entryY=-0.033;entryDx=0;entryDy=0;entryPerimeter=0;" edge="1" parent="1" source="BpBgMjqtHnBmlu4Niqm3-99" target="BpBgMjqtHnBmlu4Niqm3-101">
          <mxGeometry width="50" height="50" relative="1" as="geometry">
            <mxPoint x="700" y="480" as="sourcePoint" />
            <mxPoint x="750" y="430" as="targetPoint" />
          </mxGeometry>
        </mxCell>
        <mxCell id="BpBgMjqtHnBmlu4Niqm3-103" value="&lt;font face=&quot;Times New Roman&quot; style=&quot;font-size: 17px&quot;&gt;Batch Norm&lt;/font&gt;" style="text;html=1;resizable=0;autosize=1;align=center;verticalAlign=middle;points=[];fillColor=none;strokeColor=none;rounded=0;fontSize=14;" vertex="1" parent="1">
          <mxGeometry x="955" y="495" width="100" height="20" as="geometry" />
        </mxCell>
        <mxCell id="BpBgMjqtHnBmlu4Niqm3-106" value="1 x H x W" style="text;whiteSpace=wrap;html=1;fontSize=14;" vertex="1" parent="1">
          <mxGeometry x="1030" y="440" width="90" height="30" as="geometry" />
        </mxCell>
        <mxCell id="BpBgMjqtHnBmlu4Niqm3-107" value="" style="rounded=1;whiteSpace=wrap;html=1;fontSize=17;strokeColor=#d6b656;fillColor=#fff2cc;" vertex="1" parent="1">
          <mxGeometry x="950" y="600" width="120" height="30" as="geometry" />
        </mxCell>
        <mxCell id="BpBgMjqtHnBmlu4Niqm3-108" value="&lt;font face=&quot;Times New Roman&quot;&gt;Sigmoid&lt;/font&gt;" style="text;html=1;resizable=0;autosize=1;align=center;verticalAlign=middle;points=[];fillColor=none;strokeColor=none;rounded=0;fontSize=17;" vertex="1" parent="1">
          <mxGeometry x="970" y="600" width="70" height="30" as="geometry" />
        </mxCell>
        <mxCell id="BpBgMjqtHnBmlu4Niqm3-109" value="" style="endArrow=classic;html=1;fontSize=14;exitX=1;exitY=0.5;exitDx=0;exitDy=0;entryX=-0.25;entryY=0.7;entryDx=0;entryDy=0;entryPerimeter=0;" edge="1" parent="1" source="BpBgMjqtHnBmlu4Niqm3-107" target="BpBgMjqtHnBmlu4Niqm3-88">
          <mxGeometry width="50" height="50" relative="1" as="geometry">
            <mxPoint x="710" y="470" as="sourcePoint" />
            <mxPoint x="760" y="420" as="targetPoint" />
          </mxGeometry>
        </mxCell>
        <mxCell id="BpBgMjqtHnBmlu4Niqm3-110" value="" style="endArrow=classic;html=1;fontSize=14;entryX=0.486;entryY=-0.033;entryDx=0;entryDy=0;entryPerimeter=0;" edge="1" parent="1" target="BpBgMjqtHnBmlu4Niqm3-108">
          <mxGeometry width="50" height="50" relative="1" as="geometry">
            <mxPoint x="1004" y="520" as="sourcePoint" />
            <mxPoint x="1055" y="475" as="targetPoint" />
          </mxGeometry>
        </mxCell>
        <mxCell id="BpBgMjqtHnBmlu4Niqm3-111" value="1 x H x W" style="text;whiteSpace=wrap;html=1;fontSize=14;" vertex="1" parent="1">
          <mxGeometry x="1030" y="550" width="90" height="30" as="geometry" />
        </mxCell>
        <mxCell id="BpBgMjqtHnBmlu4Niqm3-113" value="" style="ellipse;whiteSpace=wrap;html=1;aspect=fixed;fontSize=14;strokeColor=#000000;" vertex="1" parent="1">
          <mxGeometry x="1110" y="670" width="20" height="20" as="geometry" />
        </mxCell>
        <mxCell id="BpBgMjqtHnBmlu4Niqm3-114" value="+" style="text;html=1;resizable=0;autosize=1;align=center;verticalAlign=middle;points=[];fillColor=none;strokeColor=none;rounded=0;fontSize=14;" vertex="1" parent="1">
          <mxGeometry x="1110" y="670" width="20" height="20" as="geometry" />
        </mxCell>
        <mxCell id="BpBgMjqtHnBmlu4Niqm3-115" value="" style="endArrow=classic;html=1;fontSize=14;exitX=0.6;exitY=1.2;exitDx=0;exitDy=0;exitPerimeter=0;" edge="1" parent="1" source="BpBgMjqtHnBmlu4Niqm3-114">
          <mxGeometry width="50" height="50" relative="1" as="geometry">
            <mxPoint x="710" y="470" as="sourcePoint" />
            <mxPoint x="1122" y="731" as="targetPoint" />
          </mxGeometry>
        </mxCell>
        <mxCell id="BpBgMjqtHnBmlu4Niqm3-116" value="SCA Module" style="text;html=1;resizable=0;autosize=1;align=center;verticalAlign=middle;points=[];fillColor=none;strokeColor=none;rounded=0;fontSize=16;fontStyle=1" vertex="1" parent="1">
          <mxGeometry x="1060" y="750" width="110" height="20" as="geometry" />
        </mxCell>
      </root>
    </mxGraphModel>
  </diagram>
</mxfile>
